# Blender 5.1.2
# www.blender.org
mtllib board.mtl
o Cube
v 1.000000 -0.005432 -1.000000
v 1.000000 -0.026497 -1.000000
v 1.000000 -0.005432 1.000000
v 1.000000 -0.026497 1.000000
v -1.000000 -0.005432 -1.000000
v -1.000000 -0.026497 -1.000000
v -1.000000 -0.005432 1.000000
v -1.000000 -0.026497 1.000000
v 1.000000 -0.005432 0.666667
v 1.000000 -0.005432 0.333333
v 1.000000 -0.005432 -0.000000
v 1.000000 -0.005432 -0.333333
v 1.000000 -0.005432 -0.666667
v -1.000000 -0.005432 -0.666667
v -1.000000 -0.005432 -0.333333
v -1.000000 -0.005432 0.000000
v -1.000000 -0.005432 0.333333
v -1.000000 -0.005432 0.666667
v 0.666667 -0.005432 -1.000000
v 0.333333 -0.005432 -1.000000
v -0.000000 -0.005432 -1.000000
v -0.333333 -0.005432 -1.000000
v -0.666667 -0.005432 -1.000000
v -0.666667 -0.005432 1.000000
v -0.333333 -0.005432 1.000000
v 0.000000 -0.005432 1.000000
v 0.333333 -0.005432 1.000000
v 0.666667 -0.005432 1.000000
v -0.666667 -0.005432 -0.666667
v -0.333333 -0.005432 -0.666667
v 0.000000 -0.005432 -0.666667
v 0.333333 -0.005432 -0.666667
v 0.666667 -0.005432 -0.666667
v -0.666667 -0.005432 -0.333333
v -0.333333 -0.005432 -0.333333
v 0.000000 -0.005432 -0.333333
v 0.333333 -0.005432 -0.333333
v 0.666667 -0.005432 -0.333333
v -0.666667 -0.005432 0.000000
v -0.333333 -0.005432 0.000000
v 0.000000 -0.005432 -0.000000
v 0.333333 -0.005432 -0.000000
v 0.666667 -0.005432 -0.000000
v -0.666667 -0.005432 0.333333
v -0.333333 -0.005432 0.333333
v 0.000000 -0.005432 0.333333
v 0.333333 -0.005432 0.333333
v 0.666667 -0.005432 0.333333
v -0.666667 -0.005432 0.666667
v -0.333333 -0.005432 0.666667
v 0.000000 -0.005432 0.666667
v 0.333333 -0.005432 0.666667
v 0.666667 -0.005432 0.666667
v -0.666667 -0.026497 -1.000000
v -0.333333 -0.026497 -1.000000
v 0.000000 -0.026497 -1.000000
v 0.333333 -0.026497 -1.000000
v 0.666667 -0.026497 -1.000000
v -1.000000 -0.026497 -0.666667
v -1.000000 -0.026497 -0.333333
v -1.000000 -0.026497 0.000000
v -1.000000 -0.026497 0.333333
v -1.000000 -0.026497 0.666667
v 1.000000 -0.026497 -0.666667
v 1.000000 -0.026497 -0.333333
v 1.000000 -0.026497 0.000000
v 1.000000 -0.026497 0.333333
v 1.000000 -0.026497 0.666667
v -0.666667 -0.026497 1.000000
v -0.333333 -0.026497 1.000000
v 0.000000 -0.026497 1.000000
v 0.333333 -0.026497 1.000000
v 0.666667 -0.026497 1.000000
v 0.666667 -0.026497 0.666667
v 0.666667 -0.026497 0.333333
v 0.666667 -0.026497 -0.000000
v 0.666667 -0.026497 -0.333333
v 0.666667 -0.026497 -0.666667
v 0.333333 -0.026497 0.666667
v 0.333333 -0.026497 0.333333
v 0.333333 -0.026497 -0.000000
v 0.333333 -0.026497 -0.333333
v 0.333333 -0.026497 -0.666667
v 0.000000 -0.026497 0.666667
v 0.000000 -0.026497 0.333333
v 0.000000 -0.026497 -0.000000
v 0.000000 -0.026497 -0.333333
v 0.000000 -0.026497 -0.666667
v -0.333333 -0.026497 0.666667
v -0.333333 -0.026497 0.333333
v -0.333333 -0.026497 -0.000000
v -0.333333 -0.026497 -0.333333
v -0.333333 -0.026497 -0.666667
v -0.666667 -0.026497 0.666667
v -0.666667 -0.026497 0.333333
v -0.666667 -0.026497 -0.000000
v -0.666667 -0.026497 -0.333333
v -0.666667 -0.026497 -0.666667
vn -0.0000 -0.0000 -1.0000
vn -1.0000 -0.0000 -0.0000
vn -0.0000 1.0000 -0.0000
vn 1.0000 -0.0000 -0.0000
vn -0.0000 -0.0000 1.0000
vn -0.0000 -1.0000 -0.0000
vt 0.501846 0.499885
s 0
usemtl Material
f 19/1/1 58/1/1 57/1/1
f 14/1/2 59/1/2 60/1/2
f 28/1/3 9/1/3 53/1/3
f 64/1/4 2/1/4 13/1/4
f 72/1/5 73/1/5 28/1/5
f 98/1/6 6/1/6 54/1/6
f 33/1/3 1/1/3 19/1/3
f 38/1/3 13/1/3 33/1/3
f 43/1/3 12/1/3 38/1/3
f 48/1/3 11/1/3 43/1/3
f 53/1/3 10/1/3 48/1/3
f 14/1/3 23/1/3 5/1/3
f 29/1/3 22/1/3 23/1/3
f 30/1/3 21/1/3 22/1/3
f 31/1/3 20/1/3 21/1/3
f 32/1/3 19/1/3 20/1/3
f 15/1/3 29/1/3 14/1/3
f 34/1/3 30/1/3 29/1/3
f 35/1/3 31/1/3 30/1/3
f 36/1/3 32/1/3 31/1/3
f 37/1/3 33/1/3 32/1/3
f 16/1/3 34/1/3 15/1/3
f 34/1/3 40/1/3 35/1/3
f 40/1/3 36/1/3 35/1/3
f 36/1/3 42/1/3 37/1/3
f 37/1/3 43/1/3 38/1/3
f 17/1/3 39/1/3 16/1/3
f 39/1/3 45/1/3 40/1/3
f 45/1/3 41/1/3 40/1/3
f 46/1/3 42/1/3 41/1/3
f 47/1/3 43/1/3 42/1/3
f 18/1/3 44/1/3 17/1/3
f 44/1/3 50/1/3 45/1/3
f 45/1/3 51/1/3 46/1/3
f 51/1/3 47/1/3 46/1/3
f 47/1/3 53/1/3 48/1/3
f 7/1/3 49/1/3 18/1/3
f 24/1/3 50/1/3 49/1/3
f 25/1/3 51/1/3 50/1/3
f 26/1/3 52/1/3 51/1/3
f 52/1/3 28/1/3 53/1/3
f 78/1/6 2/1/6 64/1/6
f 83/1/6 58/1/6 78/1/6
f 88/1/6 57/1/6 83/1/6
f 93/1/6 56/1/6 88/1/6
f 98/1/6 55/1/6 93/1/6
f 73/1/6 68/1/6 4/1/6
f 74/1/6 67/1/6 68/1/6
f 75/1/6 66/1/6 67/1/6
f 76/1/6 65/1/6 66/1/6
f 77/1/6 64/1/6 65/1/6
f 72/1/6 74/1/6 73/1/6
f 79/1/6 75/1/6 74/1/6
f 80/1/6 76/1/6 75/1/6
f 81/1/6 77/1/6 76/1/6
f 82/1/6 78/1/6 77/1/6
f 71/1/6 79/1/6 72/1/6
f 84/1/6 80/1/6 79/1/6
f 85/1/6 81/1/6 80/1/6
f 86/1/6 82/1/6 81/1/6
f 87/1/6 83/1/6 82/1/6
f 70/1/6 84/1/6 71/1/6
f 89/1/6 85/1/6 84/1/6
f 90/1/6 86/1/6 85/1/6
f 91/1/6 87/1/6 86/1/6
f 92/1/6 88/1/6 87/1/6
f 69/1/6 89/1/6 70/1/6
f 94/1/6 90/1/6 89/1/6
f 95/1/6 91/1/6 90/1/6
f 96/1/6 92/1/6 91/1/6
f 97/1/6 93/1/6 92/1/6
f 8/1/6 94/1/6 69/1/6
f 94/1/6 62/1/6 95/1/6
f 95/1/6 61/1/6 96/1/6
f 96/1/6 60/1/6 97/1/6
f 97/1/6 59/1/6 98/1/6
f 6/1/1 5/1/1 23/1/1
f 6/1/1 23/1/1 54/1/1
f 23/1/1 22/1/1 54/1/1
f 54/1/1 22/1/1 55/1/1
f 22/1/1 21/1/1 55/1/1
f 55/1/1 21/1/1 56/1/1
f 21/1/1 20/1/1 56/1/1
f 19/1/1 1/1/1 2/1/1
f 56/1/1 20/1/1 57/1/1
f 20/1/1 19/1/1 57/1/1
f 19/1/1 2/1/1 58/1/1
f 8/1/2 7/1/2 18/1/2
f 8/1/2 18/1/2 63/1/2
f 18/1/2 17/1/2 63/1/2
f 63/1/2 17/1/2 62/1/2
f 17/1/2 16/1/2 62/1/2
f 62/1/2 16/1/2 61/1/2
f 16/1/2 15/1/2 61/1/2
f 14/1/2 5/1/2 6/1/2
f 61/1/2 15/1/2 60/1/2
f 15/1/2 14/1/2 60/1/2
f 14/1/2 6/1/2 59/1/2
f 28/1/3 3/1/3 9/1/3
f 9/1/4 3/1/4 4/1/4
f 9/1/4 4/1/4 68/1/4
f 10/1/4 9/1/4 67/1/4
f 9/1/4 68/1/4 67/1/4
f 11/1/4 10/1/4 66/1/4
f 10/1/4 67/1/4 66/1/4
f 12/1/4 11/1/4 65/1/4
f 11/1/4 66/1/4 65/1/4
f 2/1/4 1/1/4 13/1/4
f 13/1/4 12/1/4 64/1/4
f 12/1/4 65/1/4 64/1/4
f 24/1/5 7/1/5 8/1/5
f 24/1/5 8/1/5 69/1/5
f 25/1/5 24/1/5 69/1/5
f 25/1/5 69/1/5 70/1/5
f 26/1/5 25/1/5 70/1/5
f 26/1/5 70/1/5 71/1/5
f 27/1/5 26/1/5 71/1/5
f 27/1/5 71/1/5 72/1/5
f 4/1/5 3/1/5 28/1/5
f 28/1/5 27/1/5 72/1/5
f 73/1/5 4/1/5 28/1/5
f 98/1/6 59/1/6 6/1/6
f 33/1/3 13/1/3 1/1/3
f 38/1/3 12/1/3 13/1/3
f 43/1/3 11/1/3 12/1/3
f 48/1/3 10/1/3 11/1/3
f 53/1/3 9/1/3 10/1/3
f 14/1/3 29/1/3 23/1/3
f 29/1/3 30/1/3 22/1/3
f 30/1/3 31/1/3 21/1/3
f 31/1/3 32/1/3 20/1/3
f 32/1/3 33/1/3 19/1/3
f 15/1/3 34/1/3 29/1/3
f 34/1/3 35/1/3 30/1/3
f 35/1/3 36/1/3 31/1/3
f 36/1/3 37/1/3 32/1/3
f 37/1/3 38/1/3 33/1/3
f 16/1/3 39/1/3 34/1/3
f 34/1/3 39/1/3 40/1/3
f 40/1/3 41/1/3 36/1/3
f 36/1/3 41/1/3 42/1/3
f 37/1/3 42/1/3 43/1/3
f 17/1/3 44/1/3 39/1/3
f 39/1/3 44/1/3 45/1/3
f 45/1/3 46/1/3 41/1/3
f 46/1/3 47/1/3 42/1/3
f 47/1/3 48/1/3 43/1/3
f 18/1/3 49/1/3 44/1/3
f 44/1/3 49/1/3 50/1/3
f 45/1/3 50/1/3 51/1/3
f 51/1/3 52/1/3 47/1/3
f 47/1/3 52/1/3 53/1/3
f 7/1/3 24/1/3 49/1/3
f 24/1/3 25/1/3 50/1/3
f 25/1/3 26/1/3 51/1/3
f 26/1/3 27/1/3 52/1/3
f 52/1/3 27/1/3 28/1/3
f 78/1/6 58/1/6 2/1/6
f 83/1/6 57/1/6 58/1/6
f 88/1/6 56/1/6 57/1/6
f 93/1/6 55/1/6 56/1/6
f 98/1/6 54/1/6 55/1/6
f 73/1/6 74/1/6 68/1/6
f 74/1/6 75/1/6 67/1/6
f 75/1/6 76/1/6 66/1/6
f 76/1/6 77/1/6 65/1/6
f 77/1/6 78/1/6 64/1/6
f 72/1/6 79/1/6 74/1/6
f 79/1/6 80/1/6 75/1/6
f 80/1/6 81/1/6 76/1/6
f 81/1/6 82/1/6 77/1/6
f 82/1/6 83/1/6 78/1/6
f 71/1/6 84/1/6 79/1/6
f 84/1/6 85/1/6 80/1/6
f 85/1/6 86/1/6 81/1/6
f 86/1/6 87/1/6 82/1/6
f 87/1/6 88/1/6 83/1/6
f 70/1/6 89/1/6 84/1/6
f 89/1/6 90/1/6 85/1/6
f 90/1/6 91/1/6 86/1/6
f 91/1/6 92/1/6 87/1/6
f 92/1/6 93/1/6 88/1/6
f 69/1/6 94/1/6 89/1/6
f 94/1/6 95/1/6 90/1/6
f 95/1/6 96/1/6 91/1/6
f 96/1/6 97/1/6 92/1/6
f 97/1/6 98/1/6 93/1/6
f 8/1/6 63/1/6 94/1/6
f 94/1/6 63/1/6 62/1/6
f 95/1/6 62/1/6 61/1/6
f 96/1/6 61/1/6 60/1/6
f 97/1/6 60/1/6 59/1/6
