# Blender 5.1.2
# www.blender.org
mtllib mahjong_tile.mtl
o Cube
v -0.804487 0.561144 1.134336
v -0.804487 -0.556744 1.134336
v 0.782539 -0.578692 1.134336
v 0.782539 0.583092 1.134336
v 0.790677 0.560290 1.157241
v 0.804487 0.561144 1.134336
v 0.804487 -0.556744 1.134336
v 0.790677 -0.555891 1.157241
v -0.782539 -0.578692 1.134336
v -0.790677 -0.555891 1.157241
v -0.782539 0.583092 1.134336
v -0.790677 0.560290 1.157241
v -0.804487 0.561144 -1.134336
v -0.804487 -0.556744 -1.134336
v 0.782539 -0.578692 -1.134336
v 0.782539 0.583092 -1.134336
v 0.790677 0.560290 -1.157242
v 0.804487 0.561144 -1.134336
v 0.804487 -0.556744 -1.134336
v 0.790677 -0.555891 -1.157242
v -0.782539 -0.578692 -1.134336
v -0.790677 -0.555891 -1.157242
v -0.782539 0.583092 -1.134336
v -0.790677 0.560290 -1.157242
v 0.804487 -0.250674 1.134336
v 0.790677 -0.250674 1.157241
v -0.804487 -0.250674 -1.134336
v 0.804487 -0.250674 -1.134336
v 0.790677 -0.250674 -1.157242
v -0.790677 -0.250674 -1.157242
v -0.804487 -0.250674 1.134336
v -0.790677 -0.250674 1.157241
vn 0.6442 0.6442 -0.4124
vn -0.6442 -0.6442 -0.4124
vn -0.7071 0.7071 -0.0000
vn -0.0000 1.0000 -0.0000
vn 0.6442 -0.6442 0.4124
vn -0.0000 -0.0000 -1.0000
vn -0.0000 -0.7087 0.7055
vn -0.0000 0.7087 -0.7055
vn 0.8564 -0.0000 -0.5163
vn -0.0000 -0.0000 1.0000
vn -0.0000 0.7087 0.7055
vn -0.7071 -0.7071 -0.0000
vn -0.8564 -0.0000 0.5163
vn 0.6442 0.6442 0.4124
vn 0.7071 -0.7071 -0.0000
vn 0.7071 0.7071 -0.0000
vn -0.0000 -1.0000 -0.0000
vn 1.0000 -0.0000 -0.0000
vn -0.6442 0.6442 0.4124
vn 0.6442 -0.6442 -0.4124
vn -0.6442 0.6442 -0.4124
vn -1.0000 -0.0000 -0.0000
vn -0.0000 -0.7087 -0.7055
vn -0.6442 -0.6442 0.4124
vn -0.8564 -0.0000 -0.5163
vn 0.8564 -0.0000 0.5163
vt 0.000000 1.000000 ; bottom left
vt 1.000000 0.000000 ; top right?
vt 0.998047 1.000000
vt 0.998047 0.000000
vt 0.000000 0.000000
vt 1.000000 0.023438
s 0
usemtl Material.001
f 16/1/1 18/1/1 17/1/1
f 22/2/2 21/2/2 14/2/2
f 13/3/3 11/4/3 23/3/3
f 16/1/4 11/4/4 4/5/4
f 3/2/5 7/2/5 8/2/5
f 17/6/6 30/6/6 24/6/6
f 10/2/7 3/2/7 8/2/7
f 24/3/8 16/1/8 17/1/8
f 20/2/9 28/2/9 19/2/9
f 5/6/10 32/6/10 26/6/10
f 12/4/11 4/5/11 11/4/11
f 21/2/12 2/2/12 14/2/12
f 12/6/13 31/6/13 32/6/13
f 5/5/14 6/5/14 4/5/14
f 3/2/15 19/2/15 7/2/15
f 18/1/16 4/5/16 6/5/16
f 15/2/17 9/2/17 21/2/17
f 29/2/6 22/2/6 30/2/6
f 18/6/18 25/6/18 28/6/18
f 1/4/19 12/4/19 11/4/19
f 15/2/20 20/2/20 19/2/20
f 24/3/21 13/3/21 23/3/21
f 31/6/22 13/6/22 27/6/22
f 20/2/23 21/2/23 22/2/23
f 9/2/24 10/2/24 2/2/24
f 27/6/25 24/6/25 30/6/25
f 25/2/26 8/2/26 7/2/26
f 5/6/26 25/6/26 6/6/26
f 22/2/25 27/2/25 30/2/25
f 2/2/22 27/2/22 14/2/22
f 31/2/13 10/2/13 32/2/13
f 28/2/18 7/2/18 19/2/18
f 28/6/9 17/6/9 18/6/9
f 8/2/10 32/2/10 10/2/10
f 13/3/3 1/4/3 11/4/3
f 16/1/4 23/3/4 11/4/4
f 17/6/6 29/6/6 30/6/6
f 10/2/7 9/2/7 3/2/7
f 24/3/8 23/3/8 16/1/8
f 20/2/9 29/2/9 28/2/9
f 5/6/10 12/6/10 32/6/10
f 12/4/11 5/5/11 4/5/11
f 21/2/12 9/2/12 2/2/12
f 12/6/13 1/6/13 31/6/13
f 3/2/15 15/2/15 19/2/15
f 18/1/16 16/1/16 4/5/16
f 15/2/17 3/2/17 9/2/17
f 29/2/6 20/2/6 22/2/6
f 18/6/18 6/6/18 25/6/18
f 31/6/22 1/6/22 13/6/22
f 20/2/23 15/2/23 21/2/23
f 27/6/25 13/6/25 24/6/25
f 25/2/26 26/2/26 8/2/26
f 5/6/26 26/6/26 25/6/26
f 22/2/25 14/2/25 27/2/25
f 2/2/22 31/2/22 27/2/22
f 31/2/13 2/2/13 10/2/13
f 28/2/18 25/2/18 7/2/18
f 28/6/9 29/6/9 17/6/9
f 8/2/10 26/2/10 32/2/10
