# Blender 5.1.2
# www.blender.org
mtllib mahjong_tile.mtl
o Cube
v -0.804487 0.561144 1.134336
v -0.804487 -0.556744 1.134336
v 0.782539 -0.578692 1.134336
v 0.782539 0.583092 1.134336
v 0.790677 0.560290 1.157241
v 0.804487 0.561144 1.134336
v 0.804487 -0.556744 1.134336
v 0.790677 -0.555891 1.157241
v -0.782539 -0.578692 1.134336
v -0.790677 -0.555891 1.157241
v -0.782539 0.583092 1.134336
v -0.790677 0.560290 1.157241
v -0.804487 0.561144 -1.134336
v -0.804487 -0.556744 -1.134336
v 0.782539 -0.578692 -1.134336
v 0.782539 0.583092 -1.134336
v 0.790677 0.560290 -1.157242
v 0.804487 0.561144 -1.134336
v 0.804487 -0.556744 -1.134336
v 0.790677 -0.555891 -1.157242
v -0.782539 -0.578692 -1.134336
v -0.790677 -0.555891 -1.157242
v -0.782539 0.583092 -1.134336
v -0.790677 0.560290 -1.157242
v 0.804487 -0.250674 1.134336
v 0.790677 -0.250674 1.157241
v -0.804487 -0.250674 -1.134336
v 0.804487 -0.250674 -1.134336
v 0.790677 -0.250674 -1.157242
v -0.790677 -0.250674 -1.157242
v -0.804487 -0.250674 1.134336
v -0.790677 -0.250674 1.157241
vn 0.6442 0.6442 -0.4124
vn -0.6442 -0.6442 -0.4124
vn -0.7071 0.7071 -0.0000
vn -0.0000 1.0000 -0.0000
vn 0.6442 -0.6442 0.4124
vn -0.0000 -0.0000 -1.0000
vn -0.0000 -0.7087 0.7055
vn -0.0000 0.7087 -0.7055
vn 0.8564 -0.0000 -0.5163
vn -0.0000 -0.0000 1.0000
vn -0.0000 0.7087 0.7055
vn -0.7071 -0.7071 -0.0000
vn -0.8564 -0.0000 0.5163
vn 0.6442 0.6442 0.4124
vn 0.7071 -0.7071 -0.0000
vn 0.7071 0.7071 -0.0000
vn -0.0000 -1.0000 -0.0000
vn 1.0000 -0.0000 -0.0000
vn -0.6442 0.6442 0.4124
vn 0.6442 -0.6442 -0.4124
vn -0.6442 0.6442 -0.4124
vn -1.0000 -0.0000 -0.0000
vn -0.0000 -0.7087 -0.7055
vn -0.6442 -0.6442 0.4124
vn -0.8564 -0.0000 -0.5163
vn 0.8564 -0.0000 0.5163
vt 0.171875 0.990234
vt 0.162109 0.990234
vt 0.167969 1.000000
vt 0.999056 0.000901
vt 0.857422 0.990234
vt 0.847656 0.009766
vt 0.847656 0.990234
vt 0.171875 0.009766
vt 0.999154 0.023817
vt 0.851562 1.000000
vt 0.851562 0.000000
vt 0.167969 0.000000
vt 0.162109 0.009766
vt 0.857422 0.009766
s 0
usemtl Material.001
f 16/1/1 18/2/1 17/3/1
f 22/4/2 21/4/2 14/4/2
f 13/5/3 11/6/3 23/7/3
f 16/1/4 11/6/4 4/8/4
f 3/4/5 7/4/5 8/4/5
f 17/9/6 30/9/6 24/9/6
f 10/4/7 3/4/7 8/4/7
f 24/10/8 16/1/8 17/3/8
f 20/4/9 28/4/9 19/4/9
f 5/9/10 32/9/10 26/9/10
f 12/11/11 4/8/11 11/6/11
f 21/4/12 2/4/12 14/4/12
f 12/9/13 31/9/13 32/9/13
f 5/12/14 6/13/14 4/8/14
f 3/4/15 19/4/15 7/4/15
f 18/2/16 4/8/16 6/13/16
f 15/4/17 9/4/17 21/4/17
f 29/4/6 22/4/6 30/4/6
f 18/9/18 25/9/18 28/9/18
f 1/14/19 12/11/19 11/6/19
f 15/4/20 20/4/20 19/4/20
f 24/10/21 13/5/21 23/7/21
f 31/9/22 13/9/22 27/9/22
f 20/4/23 21/4/23 22/4/23
f 9/4/24 10/4/24 2/4/24
f 27/9/25 24/9/25 30/9/25
f 25/4/26 8/4/26 7/4/26
f 5/9/26 25/9/26 6/9/26
f 22/4/25 27/4/25 30/4/25
f 2/4/22 27/4/22 14/4/22
f 31/4/13 10/4/13 32/4/13
f 28/4/18 7/4/18 19/4/18
f 28/9/9 17/9/9 18/9/9
f 8/4/10 32/4/10 10/4/10
f 13/5/3 1/14/3 11/6/3
f 16/1/4 23/7/4 11/6/4
f 17/9/6 29/9/6 30/9/6
f 10/4/7 9/4/7 3/4/7
f 24/10/8 23/7/8 16/1/8
f 20/4/9 29/4/9 28/4/9
f 5/9/10 12/9/10 32/9/10
f 12/11/11 5/12/11 4/8/11
f 21/4/12 9/4/12 2/4/12
f 12/9/13 1/9/13 31/9/13
f 3/4/15 15/4/15 19/4/15
f 18/2/16 16/1/16 4/8/16
f 15/4/17 3/4/17 9/4/17
f 29/4/6 20/4/6 22/4/6
f 18/9/18 6/9/18 25/9/18
f 31/9/22 1/9/22 13/9/22
f 20/4/23 15/4/23 21/4/23
f 27/9/25 13/9/25 24/9/25
f 25/4/26 26/4/26 8/4/26
f 5/9/26 26/9/26 25/9/26
f 22/4/25 14/4/25 27/4/25
f 2/4/22 31/4/22 27/4/22
f 31/4/13 2/4/13 10/4/13
f 28/4/18 25/4/18 7/4/18
f 28/9/9 29/9/9 17/9/9
f 8/4/10 26/4/10 32/4/10
