# Blender 5.1.2
# www.blender.org
mtllib mahjong_tile.mtl
o Cube
v -0.804487 0.561144 1.134336
v -0.804487 -0.556744 1.134336
v 0.782539 -0.578692 1.134336
v 0.782539 0.583092 1.134336
v 0.790677 0.560290 1.157241
v 0.804487 0.561144 1.134336
v 0.804487 -0.556744 1.134336
v 0.790677 -0.555891 1.157241
v -0.782539 -0.578692 1.134336
v -0.790677 -0.555891 1.157241
v -0.782539 0.583092 1.134336
v -0.790677 0.560290 1.157241
v -0.804487 0.561144 -1.134336
v -0.804487 -0.556744 -1.134336
v 0.782539 -0.578692 -1.134336
v 0.782539 0.583092 -1.134336
v 0.790677 0.560290 -1.157242
v 0.804487 0.561144 -1.134336
v 0.804487 -0.556744 -1.134336
v 0.790677 -0.555891 -1.157242
v -0.782539 -0.578692 -1.134336
v -0.790677 -0.555891 -1.157242
v -0.782539 0.583092 -1.134336
v -0.790677 0.560290 -1.157242
v 0.804487 -0.250674 1.134336
v 0.790677 -0.250674 1.157241
v -0.804487 -0.250674 -1.134336
v 0.804487 -0.250674 -1.134336
v 0.790677 -0.250674 -1.157242
v -0.790677 -0.250674 -1.157242
v -0.804487 -0.250674 1.134336
v -0.790677 -0.250674 1.157241
vn 0.4419 0.7846 -0.4349
vn 0.9014 0.3574 -0.2445
vn 0.6013 0.4745 -0.6428
vn -0.6013 -0.4745 -0.6428
vn -0.4419 -0.7846 -0.4349
vn -0.9014 -0.3574 -0.2445
vn -0.6013 0.4745 -0.6428
vn -0.0000 1.0000 -0.0000
vn 0.4419 -0.7846 0.4349
vn 0.9014 -0.3574 0.2445
vn 0.6013 -0.4745 0.6428
vn -0.0000 -0.0000 -1.0000
vn -0.6013 -0.4745 0.6428
vn 0.9014 0.3574 0.2445
vn 0.6013 -0.4745 -0.6428
vn 0.9634 -0.0000 -0.2680
vn 0.9014 -0.3574 -0.2445
vn -0.0000 -0.0000 1.0000
vn -0.9014 -0.3574 0.2445
vn -0.6013 0.4745 0.6428
vn -0.9634 -0.0000 0.2680
vn -0.8564 -0.0000 0.5163
vn 0.6013 0.4745 0.6428
vn 0.4419 0.7846 0.4349
vn -0.4419 0.7846 0.4349
vn -0.0000 -1.0000 -0.0000
vn 0.9634 -0.0000 0.2680
vn -0.9014 0.3574 0.2445
vn 0.4419 -0.7846 -0.4349
vn -0.9014 0.3574 -0.2445
vn -0.4419 0.7846 -0.4349
vn -0.9634 -0.0000 -0.2680
vn -0.4419 -0.7846 0.4349
vn -0.8564 -0.0000 -0.5163
vn 0.8564 -0.0000 -0.5163
vn 0.8564 -0.0000 0.5163
vt 0.000000 1.000000
vt 0.999237 0.000854
vt 0.998047 1.000000
vt 0.998047 0.000000
vt 0.000000 0.000000
s 1
usemtl Material.001
f 16/1/1 18/1/2 17/1/3
f 22/2/4 21/2/5 14/2/6
f 24/3/7 16/1/1 17/1/3
f 16/1/8 11/4/8 4/5/8
f 3/2/9 7/2/10 8/2/11
f 17/4/12 30/4/12 24/4/12
f 10/2/13 3/2/9 8/2/11
f 16/1/1 6/5/14 18/1/2
f 20/2/15 28/2/16 19/2/17
f 5/4/18 32/4/18 26/4/18
f 21/2/5 2/2/19 14/2/6
f 12/4/20 31/4/21 32/4/22
f 5/5/23 6/5/14 4/5/24
f 3/2/9 19/2/17 7/2/10
f 5/5/23 11/4/25 12/4/20
f 15/2/26 9/2/26 21/2/26
f 29/2/12 22/2/12 30/2/12
f 18/4/2 25/4/27 28/4/16
f 1/4/28 12/4/20 11/4/25
f 15/2/29 20/2/15 19/2/17
f 24/3/7 13/3/30 23/3/31
f 31/4/21 13/4/30 27/4/32
f 20/2/15 21/2/5 22/2/4
f 9/2/33 10/2/13 2/2/19
f 27/4/32 24/4/7 30/4/34
f 25/2/27 8/2/11 7/2/10
f 5/4/23 25/4/27 6/4/14
f 22/2/4 27/2/32 30/2/34
f 2/2/19 27/2/32 14/2/6
f 31/2/21 10/2/13 32/2/22
f 28/2/16 7/2/10 19/2/17
f 28/4/16 17/4/3 18/4/2
f 8/2/18 32/2/18 10/2/18
f 16/1/8 23/3/8 11/4/8
f 17/4/12 29/4/12 30/4/12
f 10/2/13 9/2/33 3/2/9
f 20/2/15 29/2/35 28/2/16
f 5/4/18 12/4/18 32/4/18
f 21/2/5 9/2/33 2/2/19
f 12/4/20 1/4/28 31/4/21
f 3/2/9 15/2/29 19/2/17
f 15/2/26 3/2/26 9/2/26
f 29/2/12 20/2/12 22/2/12
f 18/4/2 6/4/14 25/4/27
f 31/4/21 1/4/28 13/4/30
f 20/2/15 15/2/29 21/2/5
f 27/4/32 13/4/30 24/4/7
f 25/2/27 26/2/36 8/2/11
f 5/4/23 26/4/36 25/4/27
f 22/2/4 14/2/6 27/2/32
f 2/2/19 31/2/21 27/2/32
f 31/2/21 2/2/19 10/2/13
f 28/2/16 25/2/27 7/2/10
f 28/4/16 29/4/35 17/4/3
f 8/2/18 26/2/18 32/2/18
f 1/4/28 23/3/31 13/3/30
f 24/3/7 23/3/31 16/1/1
f 16/1/1 4/5/24 6/5/14
f 5/5/23 4/5/24 11/4/25
f 1/4/28 11/4/25 23/3/31
