# Blender 5.1.2
# www.blender.org
mtllib mahjong_tile.mtl
o Cube
v -0.804487 0.689674 1.508335
v -0.804487 -0.689674 1.508335
v 0.782539 -0.711621 1.508335
v 0.782539 0.711621 1.508335
v 0.790677 0.688820 1.531240
v 0.804487 0.689674 1.508335
v 0.804487 -0.689674 1.508335
v 0.790677 -0.688820 1.531240
v -0.782539 -0.711621 1.508335
v -0.790677 -0.688820 1.531240
v -0.782539 0.711621 1.508335
v -0.790677 0.688820 1.531240
v -0.804487 0.689674 -0.760337
v -0.804487 -0.689674 -0.760337
v 0.782539 -0.711621 -0.760337
v 0.782539 0.711621 -0.760337
v 0.790677 0.688820 -0.783242
v 0.804487 0.689674 -0.760337
v 0.804487 -0.689674 -0.760337
v 0.790677 -0.688820 -0.783242
v -0.782539 -0.711621 -0.760337
v -0.790677 -0.688820 -0.783242
v -0.782539 0.711621 -0.760337
v -0.790677 0.688820 -0.783242
v 0.804487 -0.383603 1.508335
v 0.790677 -0.383603 1.531240
v -0.804487 -0.383603 -0.760337
v 0.804487 -0.383603 -0.760337
v 0.790677 -0.383603 -0.783242
v -0.790677 -0.383603 -0.783242
v -0.804487 -0.383603 1.508335
v -0.790677 -0.383603 1.531240
vn 0.6442 0.6442 -0.4124
vn -0.6442 -0.6442 -0.4124
vn -0.7071 0.7071 -0.0000
vn -0.0000 1.0000 -0.0000
vn 0.6442 -0.6442 0.4124
vn -0.0000 -0.0000 -1.0000
vn -0.0000 -0.7087 0.7055
vn -0.0000 0.7087 -0.7055
vn 0.8564 -0.0000 -0.5163
vn -0.0000 -0.0000 1.0000
vn -0.0000 0.7087 0.7055
vn -0.7071 -0.7071 -0.0000
vn -0.8564 -0.0000 0.5163
vn 0.6442 0.6442 0.4124
vn 0.7071 -0.7071 -0.0000
vn 0.7071 0.7071 -0.0000
vn -0.0000 -1.0000 -0.0000
vn 1.0000 -0.0000 -0.0000
vn -0.6442 0.6442 0.4124
vn 0.6442 -0.6442 -0.4124
vn -0.6442 0.6442 -0.4124
vn -1.0000 -0.0000 -0.0000
vn -0.0000 -0.7087 -0.7055
vn -0.6442 -0.6442 0.4124
vn -0.8564 -0.0000 -0.5163
vn 0.8564 -0.0000 0.5163
vt 0.000462 0.989822
vt 0.009945 0.989822
vt 0.003978 0.999719
vt 0.999063 0.004470
vt 0.999002 0.004342
vt 0.999101 0.004342
vt 0.997870 0.989822
vt 0.988387 0.989822
vt 0.988387 0.009988
vt 0.997870 0.009988
vt 0.000462 0.009988
vt 0.999440 0.004047
vt 0.999520 0.004047
vt 0.999107 0.003742
vt 0.999704 0.025860
vt 0.999504 0.025860
vt 0.999504 0.024575
vt 0.999704 0.024575
vt 0.999411 0.003742
vt 0.998684 0.004047
vt 0.994354 0.999719
vt 0.999436 0.003648
vt 0.998948 0.004016
vt 0.998948 0.004488
vt 0.999436 0.004488
vt 0.994354 0.000092
vt 0.003978 0.000092
vt 0.998979 0.004047
vt 0.998510 0.025860
vt 0.998792 0.026229
vt 0.998792 0.024575
vt 0.998510 0.024575
vt 0.009945 0.009988
vt 0.999272 0.004342
vt 0.999172 0.004342
vt 0.998745 0.004488
vt 0.999434 0.004488
vt 0.999434 0.004016
vt 0.998745 0.004016
vt 0.999223 0.024575
vt 0.999223 0.026229
vt 0.998790 0.004470
vt 0.998229 0.024575
vt 0.998229 0.025860
vt 0.998712 0.004488
vt 0.998892 0.004488
vt 0.998892 0.004016
vt 0.998712 0.003648
s 0
usemtl Material
f 16/1/1 18/2/1 17/3/1
f 22/4/2 21/5/2 14/6/2
f 23/7/3 13/8/3 1/9/3 11/10/3
f 4/11/4 16/1/4 23/7/4 11/10/4
f 3/12/5 7/13/5 8/14/5
f 24/15/6 17/16/6 29/17/6 30/18/6
f 8/14/7 10/19/7 9/20/7 3/12/7
f 24/21/8 23/7/8 16/1/8 17/3/8
f 19/22/9 20/23/9 29/24/9 28/25/9
f 26/17/10 5/16/10 12/15/10 32/18/10
f 11/10/11 12/26/11 5/27/11 4/11/11
f 14/6/12 21/5/12 9/20/12 2/28/12
f 12/29/13 1/30/13 31/31/13 32/32/13
f 5/27/14 6/33/14 4/11/14
f 7/13/15 3/12/15 15/34/15 19/35/15
f 6/33/16 18/2/16 16/1/16 4/11/16
f 21/5/17 15/34/17 3/12/17 9/20/17
f 30/36/6 29/37/6 20/38/6 22/39/6
f 28/40/18 18/41/18 6/30/18 25/31/18
f 1/9/19 12/26/19 11/10/19
f 15/34/20 20/42/20 19/35/20
f 24/21/21 13/8/21 23/7/21
f 27/40/22 31/31/22 1/30/22 13/41/22
f 20/42/23 15/34/23 21/5/23 22/4/23
f 9/20/24 10/19/24 2/28/24
f 30/43/25 27/40/25 13/41/25 24/44/25
f 25/45/26 26/46/26 8/47/26 7/48/26
f 6/30/26 5/29/26 26/32/26 25/31/26
f 22/23/25 14/22/25 27/25/25 30/24/25
f 14/22/22 2/48/22 31/45/22 27/25/22
f 32/46/13 31/45/13 2/48/13 10/47/13
f 19/22/18 28/25/18 25/45/18 7/48/18
f 28/40/9 29/43/9 17/44/9 18/41/9
f 10/39/10 8/38/10 26/37/10 32/36/10
